<svg width="108" height="24" viewBox="0 0 108 24" fill="none" xmlns="http://www.w3.org/2000/svg">
<path d="M9.27967 11.6882H1V19.9678H9.27967V11.6882Z" fill="white"/>
<path d="M18.9677 2H10.688V10.2797H18.9677V2Z" fill="white"/>
<path d="M1 2L2.71651 8.5581L9.27967 10.2797L7.62374 3.65593L1 2Z" fill="white"/>
<path d="M10.688 11.6882L12.4045 18.2513L18.9677 19.9678L17.3067 13.3491L10.688 11.6882Z" fill="white"/>
<path d="M26.8494 6.32025C27.2584 6.00724 27.8339 5.85072 28.5761 5.85072C29.3434 5.85072 29.9392 6.03753 30.3633 6.41112C30.7873 6.78472 30.9994 7.30976 30.9994 7.98122H34.0285C34.0285 7.09772 33.8013 6.31015 33.347 5.61849C32.8926 4.92684 32.2565 4.38664 31.4336 4.00799C30.6106 3.62935 29.6767 3.4375 28.6265 3.4375C27.5815 3.4375 26.6425 3.6142 25.8044 3.96256C24.9663 4.31091 24.3252 4.80063 23.8758 5.4216C23.4265 6.04258 23.2044 6.75443 23.2044 7.54705C23.2044 9.07677 24.0374 10.2884 25.7085 11.1921C26.3193 11.5203 27.1524 11.8585 28.2025 12.1968C29.2526 12.535 29.9796 12.8582 30.3835 13.1661C30.7873 13.4741 30.9893 13.9133 30.9893 14.4838C30.9893 15.0089 30.7873 15.4178 30.3835 15.7106C29.9796 16.0034 29.4192 16.1498 28.6972 16.1498C26.7586 16.1498 25.7892 15.337 25.7892 13.7164H22.75C22.75 14.6656 22.9923 15.4986 23.482 16.2205C23.9718 16.9425 24.6786 17.5079 25.6075 17.9219C26.5364 18.3359 27.5663 18.5429 28.6972 18.5429C30.3279 18.5429 31.6204 18.1794 32.5846 17.4574C33.5489 16.7355 34.0285 15.7359 34.0285 14.4636C34.0285 13.3176 33.6347 12.3634 32.8472 11.596C32.0596 10.8286 30.8025 10.1875 29.0809 9.66746C28.1469 9.38474 27.4351 9.08182 26.9555 8.75871C26.4758 8.4356 26.2335 8.03676 26.2335 7.55715C26.2335 7.04724 26.4405 6.63326 26.8494 6.32025Z" fill="white"/>
<path d="M49.3158 8.71835L49.235 7.41581H46.4785V18.3409H49.3966V11.1922C49.7399 10.445 50.4618 10.0714 51.5675 10.0714C51.8704 10.0714 52.2591 10.0966 52.658 10.1521V7.34514C52.3753 7.25931 52.0723 7.21387 51.7492 7.21387C50.7143 7.21387 49.9015 7.71368 49.3158 8.71835Z" fill="white"/>
<path d="M54.0503 18.3425H56.9785V7.41733L54.0503 8.82589V18.3425Z" fill="white"/>
<path d="M54.0508 7.39843L56.979 6.03531V3.32422L54.0508 4.73782V7.39843Z" fill="white"/>
<path d="M64.3647 7.21548C63.0521 7.21548 62.007 7.70519 61.2245 8.67957L61.1336 7.41742H58.3872V18.3426H61.3053V10.6233C61.7142 9.92152 62.3302 9.57318 63.1531 9.57318C63.7791 9.57318 64.2284 9.71453 64.496 9.99221C64.7636 10.2699 64.8999 10.7242 64.8999 11.3452V18.3476H67.818V11.2897C67.8028 9.93667 67.515 8.9219 66.9496 8.24035C66.3842 7.55374 65.5259 7.21548 64.3647 7.21548Z" fill="white"/>
<path d="M72.1251 4.17969L69.207 5.61854V7.20884V9.34945V15.2361C69.2474 17.301 70.2925 18.3359 72.3372 18.3359H74.1042V15.9328H73.2459C72.8067 15.9328 72.5138 15.847 72.3573 15.6703C72.2008 15.4936 72.1251 15.2058 72.1251 14.8019V9.72304H74.1042V7.58748H72.1251V4.17969Z" fill="white"/>
<path d="M103.87 7.41733L101.85 14.2127L99.8209 7.41733H96.6807L100.507 18.3728L100.164 19.2714C100.008 19.6601 99.7956 19.9429 99.523 20.1095C99.2504 20.2761 98.8364 20.3619 98.2861 20.3619L97.8317 20.3518L96.6807 22.7549H99.1343C100.634 22.7549 101.714 22.0431 102.365 20.6143L102.608 20.0388L107 7.41733H103.87Z" fill="white"/>
<path d="M93.5357 16.313H91.5364C91.0922 16.313 90.7438 16.1969 90.4863 15.9596C90.2289 15.7223 90.1027 15.4245 90.1027 15.061L90.1127 14.8893C90.2087 13.8796 90.9861 13.3748 92.4452 13.3748H93.5357V16.313ZM95.2774 8.23025C94.4848 7.55374 93.4196 7.21548 92.0716 7.21548C91.183 7.21548 90.3803 7.36694 89.6685 7.67491C88.9566 7.98287 88.4013 8.40191 88.0125 8.94211C87.6238 9.4823 87.4269 10.0679 87.4269 10.699H90.345C90.345 10.2901 90.4863 9.96697 90.764 9.72968C91.0417 9.4924 91.4304 9.37628 91.9201 9.37628C92.4805 9.37628 92.8895 9.52773 93.1469 9.83065C93.4044 10.1336 93.5357 10.5374 93.5357 11.0423V11.6683H92.1928C90.5722 11.6734 89.3302 11.9864 88.472 12.6074C87.6137 13.2283 87.1846 14.1169 87.1846 15.273C87.1846 16.2171 87.538 16.9946 88.2397 17.6156C88.9415 18.2365 89.83 18.5445 90.9003 18.5445H96.4639V13.3748V11.0827C96.4639 9.85589 96.065 8.90676 95.2774 8.23025Z" fill="white"/>
<path d="M83.7666 12.1929C84.6501 11.7941 85.3064 11.264 85.7406 10.5925C86.1748 9.92106 86.3919 9.08804 86.3919 8.08337C86.3919 6.66977 85.9224 5.57423 84.9783 4.80179C84.0342 4.02936 82.6963 3.64062 80.9596 3.64062H75.5273V6.09423H78.5262H78.8594H80.9596C81.7724 6.09423 82.3783 6.29112 82.772 6.68996C83.1658 7.0888 83.3627 7.63405 83.3627 8.32571C83.3627 9.00727 83.1558 9.53736 82.7367 9.9261C82.3177 10.3148 81.7321 10.5067 80.9697 10.5067H78.8594H78.5262V7.59366H75.5273V10.5067V11.9506V18.3421H78.5262V12.9603H80.9394L83.6959 18.3421H86.9472V18.2007L83.7666 12.1929Z" fill="white"/>
<path d="M44.0898 8.84609C43.3426 7.8919 42.2976 7.41733 40.9496 7.41733H38.082H35.376V9.90628H40.1822C40.8688 9.90628 41.3939 10.1739 41.7523 10.704C42.1108 11.2341 42.2925 11.7541 42.2925 12.7284C42.2925 14.9195 41.5958 15.7879 40.2024 15.7879H38.0618V11.4057H35.376V15.7879V17.5448V21.5079L38.0618 22.7448V18.2718H40.9698C42.2673 18.2718 43.3023 17.7871 44.0646 16.8178C44.8269 15.8485 45.2106 14.556 45.2106 12.9455V12.7991C45.2106 11.1179 44.837 9.80027 44.0898 8.84609Z" fill="white"/>
</svg>
