<svg width="24" height="24" viewBox="0 0 24 24"  xmlns="http://www.w3.org/2000/svg">
<path fill-rule="evenodd" clip-rule="evenodd" d="M5.54772 1C4.72469 1 4 1.63694 4 2.50395V12.995H3V20.4779C3 21.8969 4.20884 22.995 5.61439 22.995H18.3856C19.7912 22.995 21 21.8969 21 20.4779V12.995H19.9961V2.50395C19.9961 1.63694 19.2715 1 18.4485 1H5.54772ZM6 12.995V2.99474H18V12.995H6ZM5 20.4779V14.995H19V20.4779C19 20.7191 18.7519 21.0003 18.4144 21.0003H5.5856C5.24808 21.0003 5 20.7191 5 20.4779Z" />
<rect x="8" y="17" width="8" height="2" />
</svg>
